<?xml version="1.0" encoding="iso-8859-1"?>
<!-- Generator: Adobe Illustrator 16.0.0, SVG Export Plug-In . SVG Version: 6.00 Build 0)  -->
<!DOCTYPE svg PUBLIC "-//W3C//DTD SVG 1.1//EN" "http://www.w3.org/Graphics/SVG/1.1/DTD/svg11.dtd">
<svg version="1.1" id="Capa_1" xmlns="http://www.w3.org/2000/svg" xmlns:xlink="http://www.w3.org/1999/xlink" x="0px" y="0px"
	 width="612.009px" height="612.008px" viewBox="0 0 612.009 612.008" style="enable-background:new 0 0 612.009 612.008;"
	 xml:space="preserve">
<g>
	<g id="Home">
		<g>
			<path fill="#fff" d="M600.804,237.267L374.82,11.285c-8.64-8.641-20.224-12.005-31.54-11.049h-74.551
				c-11.316-0.956-22.862,2.408-31.541,11.049l-45.877,45.877V0.198H76.619v171.656l-65.413,65.413
				c-8.64,8.64-12.004,20.224-11.049,31.541v75.506c0,21.104,17.127,38.23,38.231,38.23h38.231v191.154
				c0,21.104,17.127,38.231,38.231,38.231h382.309c21.104,0,38.231-17.128,38.231-38.231V382.544h38.23
				c21.104,0,38.23-17.127,38.23-38.23v-75.506C612.808,257.491,609.443,245.907,600.804,237.267z M535.391,306.083h-76.462v229.385
				h-76.462V382.544H229.542v152.924h-76.461V306.083H76.619v-21.219L284.786,76.698h42.437l208.168,208.167V306.083z"/>
		</g>
	</g>
</g>
<g>
</g>
<g>
</g>
<g>
</g>
<g>
</g>
<g>
</g>
<g>
</g>
<g>
</g>
<g>
</g>
<g>
</g>
<g>
</g>
<g>
</g>
<g>
</g>
<g>
</g>
<g>
</g>
<g>
</g>
</svg>
